# xmcd
#
# Track frame offsets:
#	150
#	16882
#	35527
#	54855
#	72512
#	85817
#	99522
#	112840
#	128477
#	138567
#	152505
#	168960
#	179842
#	198142
#
# Disc length: 2831 seconds
#
# Revision: 2
# Processed by: cddbd v1.5.2PL0 Copyright (c) Steve Scherf et al.
# Submitted via: audiograbber 1.83.01
#
DISCID=ae0b0d0e
DTITLE=Various Artists Nacional - Sertanejo 2 Disc 1
DYEAR=1900
DGENRE=Sertanejo
TTITLE0=Chitãozinho and Xororó - Fogãa de Lenha
TTITLE1=Cleiton and Camargo - Ve se volta comigo
TTITLE2=Guilherme and Santiago - Desesperadamente apaixonado
TTITLE3=João Mineiro e Marciano - Romaria
TTITLE4=Trio Parada Dura - Bobeu ... a gente pimba
TTITLE5=Teodoro e Sampaio - Pinga de mim
TTITLE6=Gilberto e Gilmar - Fuscão preto
TTITLE7=Sergio Reis - Minas Gerais
TTITLE8=Tonico e Tinoco - Cana verde
TTITLE9=Liu and Leu - Saudade de minha terra
TTITLE10=Cheiro da Terra - Estrela de fogo
TTITLE11=Duo Ciriema - Cavalo preto
TTITLE12=Guto e Halley - No rancho fundo
TTITLE13=Inezita Barroso - Na Serra da Mantiqueira
EXTD=
EXTT0=
EXTT1=
EXTT2=
EXTT3=
EXTT4=
EXTT5=
EXTT6=
EXTT7=
EXTT8=
EXTT9=
EXTT10=
EXTT11=
EXTT12=
EXTT13=
PLAYORDER=
